<?xml version="1.0" encoding="iso-8859-1"?>
<!-- Generator: Adobe Illustrator 19.0.0, SVG Export Plug-In . SVG Version: 6.00 Build 0)  -->
<svg version="1.1" id="Capa_1" xmlns="http://www.w3.org/2000/svg" xmlns:xlink="http://www.w3.org/1999/xlink" x="0px" y="0px"
	 viewBox="0 0 384 384" style="enable-background:new 0 0 384 384;" xml:space="preserve">
<g>
	<g>
		<g>
			<path d="M192,0h-10.667c-5.891,0-10.667,4.776-10.667,10.667V32c0,5.891,4.776,10.667,10.667,10.667H192
				c82.475,0,149.333,66.859,149.333,149.333v10.667c0,5.891,4.776,10.667,10.667,10.667h21.333c5.891,0,10.667-4.776,10.667-10.667
				V192C384,85.961,298.039,0,192,0z"/>
			<path d="M181.333,106.667H192c47.128,0,85.333,38.205,85.333,85.333v10.667c0,5.891,4.776,10.667,10.667,10.667h21.333
				c5.891,0,10.667-4.776,10.667-10.667V192c0-70.692-57.308-128-128-128h-10.667c-5.891,0-10.667,4.776-10.667,10.667V96
				C170.667,101.891,175.442,106.667,181.333,106.667z"/>
			<path d="M353.188,252.052c-23.51,0-46.594-3.677-68.469-10.906c-10.708-3.646-23.906-0.302-30.438,6.417l-43.177,32.594
				c-50.073-26.729-80.917-57.563-107.281-107.26l31.635-42.052c8.219-8.208,11.167-20.198,7.635-31.448
				c-7.26-21.99-10.948-45.063-10.948-68.583C132.146,13.823,118.323,0,101.333,0H30.812C13.823,0,0,13.823,0,30.812
				C0,225.563,158.438,384,353.188,384c16.99,0,30.813-13.823,30.813-30.813v-70.323C384,265.875,370.177,252.052,353.188,252.052z"
				/>
		</g>
	</g>
</g>
<g>
</g>
<g>
</g>
<g>
</g>
<g>
</g>
<g>
</g>
<g>
</g>
<g>
</g>
<g>
</g>
<g>
</g>
<g>
</g>
<g>
</g>
<g>
</g>
<g>
</g>
<g>
</g>
<g>
</g>
</svg>
